# xmcd
#
# Track frame offsets:
# 150
# 13671
# 26361
# 38569
# 51970
# 67391
# 82779
# 99138
# 115142
# 127209
# 141417
# 152732
#
# Disc length: 2242 seconds
#
#
# Revision: 0
# Processed by: cddbd v1.5PL3 Copyright (c) Steve Scherf et al.
# Submitted via: FreeRIP 2.53 
#
DISCID=9b08c00c
DTITLE=Price, Ray - The Other Woman
DYEAR=1900
DGENRE=Country
TTITLE0=Other Woman In My Life
TTITLE1=Don't You Ever Get Tired Of Hurting Me
TTITLE2=After Effects From Loving You
TTITLE3=Too Much Love Is Spoiling You
TTITLE4=Any Eye For An Eye
TTITLE5=Unloved, Unwanted
TTITLE6=Funny How Time Slips Away
TTITLE7=Born To Lose
TTITLE8=Just Call Me Lonesome
TTITLE9=This Cold War With You
TTITLE10=Rose-Colored Glasses
TTITLE11=Last Letter
EXTD=
EXTT0=
EXTT1=
EXTT2=
EXTT3=
EXTT4=
EXTT5=
EXTT6=
EXTT7=
EXTT8=
EXTT9=
EXTT10=
EXTT11=
PLAYORDER=
